<?xml version="1.0" encoding="UTF-8"?>
<svg width="389px" height="207px" viewBox="0 0 389 207" version="1.1" xmlns="http://www.w3.org/2000/svg" xmlns:xlink="http://www.w3.org/1999/xlink">
    <!-- Generator: Sketch 52.5 (67469) - http://www.bohemiancoding.com/sketch -->
    <title>Group 3</title>
    <desc>Created with Sketch.</desc>
    <g id="github" stroke="none" stroke-width="1" fill="none" fill-rule="evenodd">
        <g id="twitter-card" transform="translate(-445.000000, -218.000000)" fill="#FFFFFF">
            <g id="Group-3" transform="translate(365.000000, 180.000000)">
                <g id="Group-2">
                    <path d="M80.526595,161.1 L80.526595,142.2 L125.326595,142.2 L125.326595,216.4 C125.326595,218.826679 126.003255,220.71666 127.356595,222.07 C128.709935,223.42334 130.599916,224.1 133.026595,224.1 L156.126595,224.1 L156.126595,243 L130.926595,243 C122.619887,243 116.109952,240.643357 111.396595,235.93 C106.683238,231.216643 104.326595,224.706708 104.326595,216.4 L104.326595,161.1 L80.526595,161.1 Z M162.935957,195.26 C162.935957,190.59331 163.775949,186.393352 165.455957,182.66 C167.135965,178.926648 169.515942,175.70668 172.595957,173 C175.675972,170.29332 179.385935,168.216674 183.725957,166.77 C188.065979,165.323326 192.89593,164.6 198.215957,164.6 C203.44265,164.6 208.202602,165.346659 212.495957,166.84 C216.789312,168.333341 220.475942,170.43332 223.555957,173.14 C226.635972,175.84668 229.015949,179.089981 230.695957,182.87 C232.375965,186.650019 233.215957,190.826644 233.215957,195.4 L233.215957,209.4 L183.655957,209.4 L183.655957,213.6 C183.655957,218.26669 184.915944,221.88332 187.435957,224.45 C189.95597,227.01668 193.549267,228.3 198.215957,228.3 C201.669308,228.3 204.609278,227.740006 207.035957,226.62 C209.462636,225.499994 211.095953,223.96001 211.935957,222 L232.515957,222 C231.675953,225.360017 230.205967,228.416653 228.105957,231.17 C226.005946,233.923347 223.462639,236.27999 220.475957,238.24 C217.489275,240.20001 214.105976,241.716661 210.325957,242.79 C206.545938,243.863339 202.509312,244.4 198.215957,244.4 C192.89593,244.4 188.065979,243.653341 183.725957,242.16 C179.385935,240.666659 175.675972,238.590013 172.595957,235.93 C169.515942,233.269987 167.135965,230.026686 165.455957,226.2 C163.775949,222.373314 162.935957,218.173356 162.935957,213.6 L162.935957,195.26 Z M183.655957,196.8 L212.915957,196.8 L212.915957,195.4 C212.915957,190.73331 211.632636,187.116679 209.065957,184.55 C206.499277,181.98332 202.882647,180.7 198.215957,180.7 C193.642601,180.7 190.072636,181.98332 187.505957,184.55 C184.939277,187.116679 183.655957,190.686644 183.655957,195.26 L183.655957,196.8 Z M238.625319,166 L260.325319,166 L274.885319,212.48 C275.445322,214.160008 275.888651,215.886658 276.215319,217.66 C276.541987,219.433342 276.798651,221.066659 276.985319,222.56 C277.171987,224.333342 277.311985,226.013325 277.405319,227.6 L278.245319,227.6 C278.338653,226.013325 278.478651,224.333342 278.665319,222.56 C278.851987,221.066659 279.131984,219.433342 279.505319,217.66 C279.878654,215.886658 280.29865,214.160008 280.765319,212.48 L294.765319,166 L316.185319,166 L290.145319,243 L264.945319,243 L238.625319,166 Z M321.314681,195.26 C321.314681,190.59331 322.154673,186.393352 323.834681,182.66 C325.514689,178.926648 327.894666,175.70668 330.974681,173 C334.054696,170.29332 337.764659,168.216674 342.104681,166.77 C346.444703,165.323326 351.274654,164.6 356.594681,164.6 C361.821374,164.6 366.581326,165.346659 370.874681,166.84 C375.168036,168.333341 378.854666,170.43332 381.934681,173.14 C385.014696,175.84668 387.394673,179.089981 389.074681,182.87 C390.754689,186.650019 391.594681,190.826644 391.594681,195.4 L391.594681,209.4 L342.034681,209.4 L342.034681,213.6 C342.034681,218.26669 343.294668,221.88332 345.814681,224.45 C348.334694,227.01668 351.927991,228.3 356.594681,228.3 C360.048032,228.3 362.988002,227.740006 365.414681,226.62 C367.84136,225.499994 369.474677,223.96001 370.314681,222 L390.894681,222 C390.054677,225.360017 388.584692,228.416653 386.484681,231.17 C384.38467,233.923347 381.841363,236.27999 378.854681,238.24 C375.867999,240.20001 372.4847,241.716661 368.704681,242.79 C364.924662,243.863339 360.888036,244.4 356.594681,244.4 C351.274654,244.4 346.444703,243.653341 342.104681,242.16 C337.764659,240.666659 334.054696,238.590013 330.974681,235.93 C327.894666,233.269987 325.514689,230.026686 323.834681,226.2 C322.154673,222.373314 321.314681,218.173356 321.314681,213.6 L321.314681,195.26 Z M342.034681,196.8 L371.294681,196.8 L371.294681,195.4 C371.294681,190.73331 370.01136,187.116679 367.444681,184.55 C364.878001,181.98332 361.261371,180.7 356.594681,180.7 C352.021325,180.7 348.45136,181.98332 345.884681,184.55 C343.318001,187.116679 342.034681,190.686644 342.034681,195.26 L342.034681,196.8 Z M402.324043,166 L422.204043,166 L422.204043,179.3 L423.604043,179.3 C424.25738,174.539976 426.310692,170.900013 429.764043,168.38 C433.217394,165.859987 437.744015,164.6 443.344043,164.6 C451.277416,164.6 457.484021,167.143308 461.964043,172.23 C466.444065,177.316692 468.684043,184.339955 468.684043,193.3 L468.684043,243 L447.684043,243 L447.684043,195.4 C447.684043,191.47998 446.587387,188.400011 444.394043,186.16 C442.200699,183.919989 439.237395,182.8 435.504043,182.8 C431.770691,182.8 428.807387,183.919989 426.614043,186.16 C424.420699,188.400011 423.324043,191.47998 423.324043,195.4 L423.324043,243 L402.324043,243 L402.324043,166 Z" id="leven"></path>
                </g>
                <g id="Group" transform="translate(231.000000, 38.000000)" fill-rule="nonzero">
                    <path d="M44,0 C55.295504,0 64.58144,8.45278581 65.834912,19.3378891 C66.463408,19.279504 67.1163662,19.2286355 67.76,19.2286355 C78.938464,19.2286355 88,28.2289655 88,39.3312999 C88,47.2891407 83.313648,54.1551095 76.56,57.4127725 C78.234816,60.3394757 79.2,63.6932994 79.2,67.3002418 C79.2,78.4024714 70.138464,87.4028712 58.96,87.4028712 C54.747968,87.4028712 50.862944,86.1002186 47.63,83.9067557 C49.04416,110.03987 54.2968782,127.647007 63.085088,148.967194 C63.6603319,150.135324 63.5353675,151.524026 62.760675,152.572324 C61.9859826,153.620622 60.6895536,154.155319 59.3950896,153.960422 C58.1006257,153.765525 57.0219927,152.873233 56.594912,151.643994 C47.6009582,129.822989 41.9511822,110.953405 40.534912,83.7427879 C37.2655342,86.0154378 33.334576,87.4028712 29.04,87.4028712 C17.861536,87.4028712 8.8,78.4024714 8.8,67.3002418 C8.8,63.6932994 9.765184,60.3394757 11.44,57.4127725 C4.68635376,54.1551095 0,47.2891407 0,39.3312999 C0,28.2289655 9.061536,19.2286355 20.24,19.2286355 C20.883632,19.2286355 21.5364142,19.279504 22.165088,19.3378891 C23.4185582,8.45278581 32.7044942,0 44,0 Z M28.4130495,100.312462 C32.4567579,100.286631 36.2914629,101.194496 39.3533454,103.164692 C40.1958357,108.973853 41.2713088,114.481827 42.5806452,119.793143 C30.6748025,127.307304 18.3525284,116.029777 15.6129032,103.487576 C19.5400301,101.453664 24.0805172,100.339498 28.4130495,100.312462 Z M68.0403226,99.6152079 C72.4300323,99.7331517 76.9682419,100.953349 80.9032258,103.084143 C78.0655789,114.777054 66.860129,125.153678 55.7318548,120.266296 C54.4849516,115.757028 53.3856613,111.160516 52.516129,106.336269 C55.7355806,101.514623 61.7270305,99.4447098 68.0403226,99.6152079 Z M43.5,33 C35.4918312,33 29,39.268045 29,47 C29,54.7319375 35.4918312,61 43.5,61 C51.5081688,61 58,54.7319375 58,47 C58,39.268045 51.5081688,33 43.5,33 Z" id="Combined-Shape"></path>
                </g>
            </g>
        </g>
    </g>
</svg>